<!-- Generator: Adobe Illustrator 21.0.0, SVG Export Plug-In  -->
<svg version="1.1"
	 xmlns="http://www.w3.org/2000/svg" xmlns:xlink="http://www.w3.org/1999/xlink" xmlns:a="http://ns.adobe.com/AdobeSVGViewerExtensions/3.0/"
	 x="0px" y="0px" width="686.297px" height="713.908px" viewBox="0 0 686.297 713.908"
	 style="enable-background:new 0 0 686.297 713.908;" xml:space="preserve">
<style type="text/css">
	.st0{fill:#FFFFFF;}
	.st1{fill:#FFC627;}
</style>
<defs>
</defs>
<g>
	<g>
		<g>
			<path class="st0" d="M200.996,167.367h64.175l-0.054,25.221H198.62c-12.06,0-13.795,9.553-13.795,12.56
				c0,12.319,11.198,14.566,34.933,20.459c17.38,4.357,28.036,8.839,34.895,15.295c6.853,6.462,10.278,15.763,10.278,27.915
				c0,15.936-4.625,27.957-13.87,36.098c-9.25,8.141-16.188,12.194-34.015,12.194h-58.836l-0.176-25.24c0,0,35.148,0,58.163,0
				c23.015,0,21.897-14.134,21.897-20.602s-3.08-14.407-13.169-17.538c-10.088-3.131-42.864-9.313-52.71-16.336
				c-9.847-7.023-14.005-15.666-14.005-28.158C158.209,179.073,172.469,167.145,200.996,167.367z"/>
			<path class="st0" d="M306.892,225.594v33.286c0,9.191,3.252,17.025,9.754,23.529c6.503,6.503,14.337,9.743,23.531,9.743v24.958
				c-16.123,0-29.863-5.67-41.205-17.025c-11.358-11.355-17.037-25.081-17.037-41.204v-91.516h24.956v33.283h33.286v24.947H306.892z
				"/>
			<path class="st0" d="M468.249,317.11h-24.958v-10.267c-9.614,6.845-20.714,10.267-33.283,10.267
				c-16.112,0-29.846-5.67-41.204-17.025c-11.352-11.355-17.026-25.081-17.026-41.204c0-16.123,5.673-29.85,17.026-41.205
				c11.358-11.355,25.093-17.028,41.204-17.028c16.123,0,29.858,5.673,41.21,17.028c11.352,11.355,17.031,25.081,17.031,41.205
				V317.11z M410.008,225.608c-9.177,0-17.025,3.238-23.523,9.741c-6.497,6.503-9.749,14.34-9.749,23.531
				c0,9.18,3.252,17.025,9.749,23.529c6.498,6.503,14.346,9.754,23.523,9.754c9.194,0,17.037-3.252,23.534-9.754
				c6.503-6.503,9.749-14.349,9.749-23.529c0-9.191-3.246-17.028-9.749-23.531C427.045,228.845,419.202,225.608,410.008,225.608z"/>
			<path class="st0" d="M484.894,258.88c0-16.123,5.673-29.85,17.031-41.205c11.347-11.355,25.082-17.028,41.204-17.028
				c16.123,0,29.847,5.673,41.205,17.028l0.135,0.121l-17.682,17.687l-0.129-0.134c-6.503-6.503-14.346-9.755-23.529-9.755
				c-9.188,0-17.031,3.252-23.534,9.755c-6.492,6.503-9.743,14.352-9.743,23.531v58.23h-24.958V258.88z"/>
			<g>
				<path class="st0" d="M618.664,225.223v-47.985h-17.521V167.1h47.271v10.137H630.81v47.985H618.664z"/>
				<path class="st0" d="M655.137,225.223L635.442,167.1h12.954l12.69,40.771l12.596-40.771h12.614l-19.694,58.122H655.137z"/>
			</g>
		</g>
		<g>
			<circle class="st1" cx="24.184" cy="285.448" r="18.252"/>
			<circle class="st1" cx="44.208" cy="355.467" r="12.168"/>
			<circle class="st1" cx="70.517" cy="312.135" r="12.168"/>
			<circle class="st1" cx="56.589" cy="231.661" r="12.168"/>
			<circle class="st1" cx="42.661" cy="168.211" r="12.168"/>
			<circle class="st1" cx="13.257" cy="253.327" r="12.168"/>
			<circle class="st1" cx="134.857" cy="410.143" r="12.168"/>
			<circle class="st1" cx="147.896" cy="445.227" r="12.168"/>
			<circle class="st1" cx="79.067" cy="399.024" r="12.168"/>
			<circle class="st1" cx="119.087" cy="381.623" r="9.126"/>
			<circle class="st1" cx="259.334" cy="464.303" r="9.126"/>
			<circle class="st1" cx="174.799" cy="440.508" r="9.126"/>
			<circle class="st1" cx="190.807" cy="461.746" r="9.126"/>
			<circle class="st1" cx="74.942" cy="367.618" r="9.126"/>
			<circle class="st1" cx="21.814" cy="317.283" r="9.126"/>
			<circle class="st1" cx="30.139" cy="232.979" r="9.126"/>
			<circle class="st1" cx="10.169" cy="211.236" r="9.126"/>
			<circle class="st1" cx="34.705" cy="206.67" r="9.126"/>
			<circle class="st1" cx="16.134" cy="181.909" r="9.126"/>
			<circle class="st1" cx="72.807" cy="194.366" r="9.126"/>
			<circle class="st1" cx="68.752" cy="171.076" r="9.126"/>
			<circle class="st1" cx="69.41" cy="284.784" r="9.126"/>
			<circle class="st1" cx="51.729" cy="330.476" r="9.126"/>
			<circle class="st1" cx="57.89" cy="253.768" r="6.084"/>
			<circle class="st1" cx="76.46" cy="334.977" r="6.084"/>
			<circle class="st1" cx="38.583" cy="252.297" r="6.084"/>
			<circle class="st1" cx="67.175" cy="352" r="6.084"/>
			<circle class="st1" cx="59.36" cy="382.14" r="6.084"/>
			<circle class="st1" cx="87.293" cy="382.14" r="6.084"/>
			<circle class="st1" cx="89.653" cy="346.743" r="6.084"/>
			<circle class="st1" cx="108.959" cy="403.07" r="6.084"/>
			<circle class="st1" cx="153.104" cy="422.376" r="6.084"/>
			<circle class="st1" cx="101.222" cy="423.189" r="6.084"/>
			<circle class="st1" cx="237.485" cy="465.281" r="6.084"/>
			<circle class="st1" cx="95.898" cy="368.529" r="6.084"/>
			<circle class="st1" cx="307.126" cy="430.345" r="6.084"/>
			<circle class="st1" cx="359.041" cy="427.985" r="6.084"/>
			<circle class="st1" cx="344.883" cy="416.186" r="6.084"/>
			<circle class="st1" cx="338.231" cy="431.311" r="6.084"/>
			<circle class="st1" cx="277.722" cy="445.667" r="6.084"/>
			<circle class="st1" cx="214.518" cy="439.609" r="6.084"/>
			<circle class="st1" cx="218.727" cy="457.466" r="6.084"/>
			<circle class="st1" cx="239.966" cy="441.458" r="6.084"/>
			<circle class="st1" cx="278.381" cy="460.331" r="6.084"/>
			<circle class="st1" cx="323.217" cy="434.373" r="6.084"/>
			<circle class="st1" cx="301.979" cy="446.172" r="6.084"/>
			<circle class="st1" cx="253.696" cy="449.273" r="6.084"/>
			<circle class="st1" cx="119.793" cy="432.474" r="6.084"/>
			<circle class="st1" cx="51.622" cy="286.925" r="6.084"/>
			<circle class="st1" cx="6.084" cy="231.213" r="6.084"/>
			<circle class="st1" cx="55.376" cy="270.056" r="6.084"/>
			<circle class="st1" cx="54.794" cy="204.981" r="6.084"/>
			<circle class="st1" cx="75.138" cy="121.049" r="6.084"/>
			<circle class="st1" cx="51.699" cy="187.957" r="6.084"/>
			<circle class="st1" cx="19.425" cy="158.778" r="6.084"/>
			<circle class="st1" cx="31.131" cy="144.85" r="6.084"/>
			<circle class="st1" cx="57.89" cy="153.911" r="6.084"/>
			<circle class="st1" cx="87.293" cy="157.006" r="6.084"/>
			<circle class="st1" cx="47.056" cy="307.121" r="6.084"/>
			<circle class="st1" cx="30.033" cy="336.525" r="6.084"/>
			<circle class="st1" cx="89.119" cy="325.654" r="3.042"/>
			<circle class="st1" cx="41.649" cy="267.241" r="3.042"/>
			<circle class="st1" cx="40.913" cy="219.925" r="3.042"/>
			<circle class="st1" cx="193.899" cy="431.718" r="3.042"/>
			<circle class="st1" cx="169.79" cy="461.885" r="3.042"/>
			<circle class="st1" cx="228.274" cy="436.948" r="3.042"/>
			<circle class="st1" cx="226.425" cy="468.964" r="3.042"/>
			<circle class="st1" cx="207.547" cy="466.604" r="3.042"/>
			<circle class="st1" cx="107.536" cy="365.397" r="3.042"/>
			<circle class="st1" cx="170.174" cy="422.509" r="3.042"/>
			<circle class="st1" cx="370.997" cy="409.618" r="3.042"/>
			<circle class="st1" cx="359.199" cy="414.338" r="3.042"/>
			<circle class="st1" cx="368.638" cy="419.057" r="3.042"/>
			<circle class="st1" cx="333.241" cy="445.015" r="3.042"/>
			<circle class="st1" cx="349.759" cy="435.576" r="3.042"/>
			<circle class="st1" cx="328.521" cy="421.417" r="3.042"/>
			<circle class="st1" cx="309.643" cy="454.454" r="3.042"/>
			<circle class="st1" cx="298.162" cy="460.195" r="3.042"/>
			<circle class="st1" cx="319.082" cy="447.375" r="3.042"/>
			<circle class="st1" cx="292.433" cy="435.773" r="3.042"/>
			<circle class="st1" cx="226.359" cy="447.572" r="3.042"/>
			<circle class="st1" cx="205.121" cy="447.572" r="3.042"/>
			<circle class="st1" cx="190.962" cy="445.212" r="3.042"/>
			<circle class="st1" cx="240.518" cy="452.292" r="3.042"/>
			<circle class="st1" cx="290.073" cy="454.652" r="3.042"/>
			<circle class="st1" cx="278.274" cy="433.414" r="3.042"/>
			<circle class="st1" cx="266.475" cy="447.572" r="3.042"/>
			<circle class="st1" cx="261.756" cy="435.773" r="3.042"/>
			<circle class="st1" cx="136.863" cy="428.035" r="3.042"/>
			<circle class="st1" cx="96.626" cy="407.182" r="3.042"/>
			<circle class="st1" cx="101.269" cy="388.611" r="3.042"/>
			<circle class="st1" cx="59.484" cy="366.945" r="3.042"/>
			<circle class="st1" cx="68.693" cy="210.716" r="3.042"/>
			<circle class="st1" cx="68.693" cy="260.272" r="3.042"/>
			<circle class="st1" cx="99.721" cy="149.186" r="3.042"/>
			<circle class="st1" cx="87.566" cy="171.95" r="3.042"/>
			<circle class="st1" cx="30.08" cy="188.973" r="3.042"/>
			<circle class="st1" cx="49.964" cy="122.119" r="18.02"/>
			<circle class="st1" cx="189.186" cy="35.03" r="18.02"/>
			<circle class="st1" cx="343.502" cy="48.966" r="18.02"/>
			<circle class="st1" cx="114.227" cy="113.325" r="12.013"/>
			<circle class="st1" cx="115.755" cy="64.433" r="12.013"/>
			<circle class="st1" cx="276.182" cy="14.013" r="12.013"/>
			<circle class="st1" cx="233.401" cy="12.485" r="12.013"/>
			<circle class="st1" cx="318.962" cy="26.422" r="12.013"/>
			<circle class="st1" cx="221.549" cy="63.091" r="12.013"/>
			<circle class="st1" cx="376.545" cy="109.015" r="12.013"/>
			<circle class="st1" cx="74.288" cy="99.347" r="9.01"/>
			<circle class="st1" cx="74.102" cy="146.155" r="9.01"/>
			<circle class="st1" cx="97.206" cy="131.433" r="9.01"/>
			<circle class="st1" cx="78.871" cy="73.188" r="9.01"/>
			<circle class="st1" cx="138.458" cy="77.957" r="9.01"/>
			<circle class="st1" cx="136.931" cy="53.326" r="9.01"/>
			<circle class="st1" cx="129.291" cy="33.649" r="9.01"/>
			<circle class="st1" cx="149.154" cy="26.009" r="9.01"/>
			<circle class="st1" cx="169.016" cy="73.373" r="9.01"/>
			<circle class="st1" cx="274.439" cy="47.399" r="9.01"/>
			<circle class="st1" cx="204.157" cy="9.203" r="9.01"/>
			<circle class="st1" cx="417.132" cy="121.753" r="9.01"/>
			<circle class="st1" cx="381.434" cy="67.078" r="8.036"/>
			<circle class="st1" cx="318.748" cy="84.069" r="9.01"/>
			<circle class="st1" cx="309.58" cy="58.095" r="9.01"/>
			<circle class="st1" cx="294.302" cy="33.649" r="9.01"/>
			<circle class="st1" cx="347.592" cy="85.967" r="9.01"/>
			<circle class="st1" cx="161.377" cy="41.288" r="9.01"/>
			<circle class="st1" cx="92.622" cy="59.252" r="9.01"/>
			<circle class="st1" cx="63.564" cy="83.928" r="6.007"/>
			<circle class="st1" cx="97.177" cy="76.289" r="6.007"/>
			<circle class="st1" cx="109.4" cy="85.456" r="6.007"/>
			<circle class="st1" cx="181.21" cy="59.482" r="6.007"/>
			<circle class="st1" cx="153.708" cy="57.954" r="6.007"/>
			<circle class="st1" cx="190.377" cy="73.233" r="6.007"/>
			<circle class="st1" cx="234.685" cy="45.731" r="6.007"/>
			<circle class="st1" cx="253.02" cy="48.787" r="6.007"/>
			<circle class="st1" cx="168.801" cy="15.359" r="6.007"/>
			<circle class="st1" cx="216.351" cy="42.676" r="6.007"/>
			<circle class="st1" cx="248.436" cy="27.397" r="6.007"/>
			<circle class="st1" cx="214.823" cy="24.341" r="6.007"/>
			<circle class="st1" cx="248.622" cy="64.251" r="6.007"/>
			<circle class="st1" cx="289.689" cy="59.668" r="6.007"/>
			<circle class="st1" cx="276.124" cy="67.678" r="6.007"/>
			<circle class="st1" cx="347.546" cy="111.785" r="8.33"/>
			<circle class="st1" cx="399.726" cy="89.171" r="11.829"/>
			<circle class="st1" cx="400.986" cy="67.635" r="7.35"/>
			<circle class="st1" cx="376.407" cy="43.417" r="6.007"/>
			<circle class="st1" cx="298.856" cy="76.289" r="6.007"/>
			<circle class="st1" cx="256.076" cy="6.007" r="6.007"/>
			<circle class="st1" cx="110.928" cy="42.676" r="6.007"/>
			<circle class="st1" cx="135.374" cy="100.735" r="6.007"/>
			<circle class="st1" cx="92.593" cy="108.374" r="6.007"/>
			<circle class="st1" cx="89.584" cy="89.515" r="3.003"/>
			<circle class="st1" cx="107.919" cy="95.627" r="3.003"/>
			<circle class="st1" cx="50.513" cy="95.627" r="3.003"/>
			<circle class="st1" cx="152.227" cy="89.515" r="3.003"/>
			<circle class="st1" cx="152.227" cy="69.653" r="3.003"/>
			<circle class="st1" cx="167.506" cy="57.43" r="3.003"/>
			<circle class="st1" cx="201.949" cy="60.3" r="3.003"/>
			<circle class="st1" cx="372.572" cy="84.106" r="6.804"/>
			<circle class="st1" cx="333.214" cy="96.413" r="3.003"/>
			<circle class="st1" cx="336.084" cy="73.45" r="3.003"/>
			<circle class="st1" cx="361.917" cy="70.58" r="3.003"/>
			<circle class="st1" cx="391.307" cy="131.544" r="4.878"/>
			<circle class="st1" cx="399.918" cy="111.452" r="4.878"/>
			<circle class="st1" cx="419.323" cy="102.153" r="3.003"/>
			<circle class="st1" cx="315.992" cy="44.747" r="3.003"/>
			<circle class="st1" cx="263.947" cy="62.199" r="3.003"/>
			<circle class="st1" cx="232.374" cy="33.496" r="3.003"/>
			<circle class="st1" cx="183.579" cy="10.534" r="3.003"/>
			<circle class="st1" cx="265.29" cy="31.456" r="3.003"/>
			<circle class="st1" cx="121.669" cy="49.79" r="3.003"/>
			<circle class="st1" cx="123.197" cy="95.627" r="3.003"/>
			<circle class="st1" cx="123.197" cy="84.931" r="3.003"/>
		</g>
	</g>
	<g>
		<g>
			<path class="st1" d="M104.589,566.477H84.366v-10.235h51.629v10.235H115.76v65.939h-11.171V566.477z"/>
			<path class="st1" d="M134.787,578.185h10.544v32.33c0,3.662,0.995,6.522,2.986,8.579c1.957,2.059,4.454,3.087,7.492,3.087
				c3.037,0,5.518-1.028,7.44-3.087c1.958-2.057,2.937-4.917,2.937-8.579v-32.33h10.544v54.231h-10.545v-5.799h-0.201
				c-3.473,4.283-8.006,6.426-13.602,6.426c-4.349-0.07-8.275-1.704-11.781-4.902c-3.809-3.128-5.748-7.752-5.814-13.87V578.185z"/>
			<path class="st1" d="M193.789,615.854c4.296,4.637,9.844,6.954,16.644,6.954c3.044,0,5.531-0.609,7.459-1.828
				c1.929-1.22,2.893-2.926,2.893-5.121c0-1.95-0.575-3.309-1.725-4.075c-1.184-0.802-2.755-1.237-4.715-1.308l-9.33-0.836
				c-4.428-0.418-8.028-1.95-10.8-4.598c-2.84-2.578-4.294-6.183-4.36-10.816c0.066-5.573,1.975-9.753,5.723-12.54
				c3.646-2.787,8.271-4.18,13.877-4.18c2.431,0,4.608,0.156,6.533,0.47c1.924,0.348,3.73,0.835,5.419,1.462
				c3.24,1.357,6.145,3.186,8.711,5.482l-6.542,7.885c-2.029-1.512-4.177-2.76-6.441-3.745c-2.231-0.879-4.801-1.319-7.708-1.319
				c-3.314,0-5.63,0.611-6.948,1.831c-1.387,1.222-2.079,2.791-2.079,4.708c-0.07,1.222,0.454,2.285,1.571,3.191
				c1.014,1.012,2.806,1.656,5.375,1.936l8.721,0.68c5.477,0.419,9.432,2.128,11.865,5.127c2.265,2.93,3.397,6.645,3.397,11.143
				c-0.068,5.266-2.144,9.329-6.227,12.188c-4.051,2.93-9.231,4.429-15.542,4.499c-8.572,0-16.283-3.237-23.134-9.713
				L193.789,615.854z"/>
			<path class="st1" d="M307.927,623.688c-2.295,2.703-4.995,4.903-8.101,6.602c-3.104,1.767-6.699,2.685-10.782,2.754
				c-6.198,0-11.639-2.177-16.321-6.531c-4.851-4.354-7.343-11.406-7.478-21.159c0.135-9.856,2.63-16.997,7.484-21.421
				c4.686-4.354,10.131-6.496,16.334-6.426c4.08,0.069,7.67,0.938,10.772,2.606c3.102,1.702,5.799,3.979,8.091,6.828l-7.794,7.142
				c-2.665-3.669-6.225-5.574-10.679-5.715c-8.975-0.139-13.53,5.523-13.665,16.985c0.135,11.393,4.689,17.003,13.664,16.828
				c4.453-0.069,8.013-1.957,10.678-5.661L307.927,623.688z"/>
			<path class="st1" d="M344.346,627.612h-0.202c-0.978,1.845-2.496,3.203-4.552,4.073c-2.024,0.904-4.822,1.357-8.396,1.357
				c-5.868-0.07-10.386-1.671-13.556-4.806c-3.339-3.064-5.007-6.982-5.007-11.754c0-4.562,1.449-8.341,4.35-11.336
				c2.899-3.064,7.148-4.631,12.746-4.701h14.617v-5.723c0.069-4.794-3.523-7.122-10.778-6.983c-2.632,0-4.706,0.28-6.224,0.841
				c-1.586,0.665-2.834,1.785-3.744,3.359l-8.299-6.538c4.011-5.404,9.927-8.036,17.747-7.896c6.605-0.07,11.881,1.219,15.825,3.865
				c3.943,2.717,5.949,7.385,6.017,14.002v37.043h-10.544V627.612z M344.346,609.423h-12.672c-6.152,0.14-9.194,2.318-9.124,6.536
				c0,1.847,0.793,3.415,2.382,4.705c1.521,1.43,4.038,2.144,7.553,2.144c4.427,0.07,7.552-0.47,9.378-1.62
				c1.655-1.15,2.483-3.765,2.483-7.843V609.423z"/>
			<path class="st1" d="M370.26,578.185h10.544v5.747h0.202c3.472-4.284,8.022-6.426,13.651-6.426c4.348,0,8.326,1.585,11.934,4.754
				c3.572,3.205,5.443,7.907,5.612,14.106v36.05h-10.544v-32.33c0-3.801-0.979-6.695-2.937-8.684
				c-1.923-2.023-4.404-3.035-7.44-3.035c-3.038,0-5.535,1.012-7.492,3.035c-1.992,1.988-2.987,4.883-2.987,8.684v32.33H370.26
				V578.185z"/>
			<path class="st1" d="M455.316,627.612h-0.203c-0.978,1.845-2.495,3.203-4.552,4.073c-2.023,0.904-4.822,1.357-8.396,1.357
				c-5.867-0.07-10.386-1.671-13.555-4.806c-3.339-3.064-5.008-6.982-5.008-11.754c0-4.562,1.45-8.341,4.35-11.336
				c2.899-3.064,7.148-4.631,12.746-4.701h14.618v-5.723c0.069-4.794-3.523-7.122-10.778-6.983c-2.632,0-4.707,0.28-6.225,0.841
				c-1.586,0.665-2.834,1.785-3.744,3.359l-8.299-6.538c4.011-5.404,9.927-8.036,17.747-7.896c6.606-0.07,11.881,1.219,15.826,3.865
				c3.942,2.717,5.948,7.385,6.016,14.002v37.043h-10.543V627.612z M455.316,609.423h-12.673c-6.152,0.14-9.194,2.318-9.124,6.536
				c0,1.847,0.794,3.415,2.382,4.705c1.521,1.43,4.039,2.144,7.553,2.144c4.427,0.07,7.553-0.47,9.378-1.62
				c1.655-1.15,2.484-3.765,2.484-7.843V609.423z"/>
			<path class="st1" d="M481.23,556.241h10.543v62.227c0,2.476,1.319,3.713,3.958,3.713h3.654v10.235h-4.703
				c-3.845,0-7.014-0.988-9.508-2.967c-2.631-2.012-3.944-5.395-3.944-10.146V556.241z"/>
			<path class="st1" d="M516.747,609.423c0,4.357,1.215,7.669,3.646,9.935c2.261,2.3,5.231,3.45,8.912,3.45
				c4.287,0,8.118-1.76,11.495-5.281l7.646,6.743c-5.362,5.919-11.67,8.843-18.921,8.773c-2.766,0-5.464-0.418-8.095-1.254
				c-1.315-0.452-2.597-1.062-3.844-1.828c-1.316-0.662-2.547-1.48-3.693-2.456c-2.227-2.02-4.03-4.841-5.413-8.464
				c-1.519-3.482-2.276-8.011-2.276-13.584c0-5.363,0.656-9.822,1.973-13.375c1.314-3.622,3.001-6.479,5.058-8.568
				c2.091-2.124,4.435-3.657,7.032-4.598c2.562-0.94,5.092-1.41,7.588-1.41c6.003,0.069,11.078,2.107,15.227,6.114
				c4.216,4.076,6.357,9.685,6.425,16.826v8.977H516.747z M538.962,600.446c-0.136-4.235-1.234-7.438-3.296-9.607
				c-2.03-2.065-4.633-3.099-7.812-3.099s-5.782,1.033-7.811,3.099c-1.995,2.17-3.094,5.372-3.297,9.607H538.962z"/>
			<path class="st1" d="M563.847,615.854c4.295,4.637,9.843,6.954,16.644,6.954c3.044,0,5.53-0.609,7.459-1.828
				c1.928-1.22,2.893-2.926,2.893-5.121c0-1.95-0.575-3.309-1.725-4.075c-1.184-0.802-2.755-1.237-4.715-1.308l-9.33-0.836
				c-4.428-0.418-8.028-1.95-10.8-4.598c-2.84-2.578-4.294-6.183-4.36-10.816c0.066-5.573,1.975-9.753,5.722-12.54
				c3.647-2.787,8.272-4.18,13.878-4.18c2.431,0,4.607,0.156,6.533,0.47c1.924,0.348,3.73,0.835,5.419,1.462
				c3.24,1.357,6.145,3.186,8.711,5.482l-6.542,7.885c-2.03-1.512-4.177-2.76-6.441-3.745c-2.231-0.879-4.801-1.319-7.709-1.319
				c-3.313,0-5.629,0.611-6.947,1.831c-1.387,1.222-2.08,2.791-2.08,4.708c-0.069,1.222,0.454,2.285,1.572,3.191
				c1.014,1.012,2.806,1.656,5.374,1.936l8.722,0.68c5.476,0.419,9.431,2.128,11.865,5.127c2.265,2.93,3.396,6.645,3.396,11.143
				c-0.067,5.266-2.143,9.329-6.226,12.188c-4.051,2.93-9.231,4.429-15.542,4.499c-8.572,0-16.283-3.237-23.134-9.713
				L563.847,615.854z"/>
		</g>
		<g>
			<path class="st0" d="M85.76,672.892h7.898v4.297h0.151c2.682-3.203,6.211-4.805,10.587-4.805
				c2.812,0.053,5.078,0.534,6.797,1.445c1.693,1.016,3.242,2.305,4.649,3.867c3.177-3.594,7.436-5.364,12.774-5.312
				c3.359,0,6.433,1.186,9.22,3.555c2.761,2.396,4.193,5.912,4.298,10.547v26.953h-7.891v-24.172c0-2.842-0.756-5.006-2.266-6.493
				c-1.511-1.512-3.459-2.269-5.843-2.269c-2.385,0-4.346,0.757-5.883,2.269c-1.563,1.487-2.345,3.651-2.345,6.493v24.172h-7.883
				v-24.172c0-2.842-0.756-5.006-2.266-6.493c-1.537-1.512-3.498-2.269-5.883-2.269c-2.384,0-4.332,0.757-5.842,2.269
				c-1.59,1.487-2.385,3.651-2.385,6.493v24.172H85.76V672.892z"/>
			<path class="st0" d="M174.869,709.847h-0.151c-0.731,1.379-1.866,2.395-3.403,3.046c-1.514,0.676-3.605,1.015-6.278,1.015
				c-4.387-0.053-7.765-1.249-10.135-3.593c-2.496-2.292-3.743-5.221-3.743-8.788c0-3.411,1.084-6.236,3.252-8.476
				c2.168-2.291,5.345-3.462,9.529-3.515h10.93v-4.279c0.052-3.584-2.635-5.324-8.059-5.221c-1.968,0-3.519,0.21-4.653,0.628
				c-1.187,0.498-2.119,1.335-2.8,2.513l-6.205-4.889c2.999-4.04,7.422-6.008,13.27-5.904c4.938-0.052,8.883,0.912,11.832,2.891
				c2.948,2.031,4.447,5.521,4.498,10.469v27.695h-7.883V709.847z M174.869,696.247h-9.475c-4.601,0.104-6.875,1.733-6.822,4.887
				c0,1.381,0.594,2.554,1.781,3.518c1.137,1.069,3.02,1.604,5.646,1.604c3.31,0.053,5.646-0.352,7.012-1.212
				c1.237-0.86,1.857-2.814,1.857-5.863V696.247z M170.292,656.017h10.39l-10.994,11.637h-6.498L170.292,656.017z"/>
			<path class="st0" d="M195.389,701.055c3.212,3.467,7.359,5.2,12.444,5.2c2.275,0,4.135-0.455,5.576-1.367
				c1.441-0.911,2.163-2.188,2.163-3.829c0-1.458-0.43-2.474-1.289-3.047c-0.886-0.6-2.061-0.925-3.525-0.978l-6.977-0.625
				c-3.311-0.312-6.002-1.458-8.074-3.438c-2.123-1.927-3.21-4.622-3.26-8.087c0.05-4.167,1.476-7.292,4.278-9.375
				c2.727-2.084,6.185-3.126,10.375-3.126c1.817,0,3.445,0.117,4.885,0.352c1.438,0.26,2.789,0.624,4.052,1.093
				c2.423,1.016,4.594,2.382,6.513,4.1l-4.892,5.895c-1.517-1.13-3.122-2.063-4.815-2.8c-1.669-0.657-3.589-0.986-5.764-0.986
				c-2.478,0-4.209,0.457-5.194,1.369c-1.036,0.913-1.555,2.086-1.555,3.52c-0.053,0.914,0.34,1.709,1.175,2.387
				c0.758,0.756,2.098,1.238,4.019,1.447l6.521,0.508c4.095,0.313,7.052,1.591,8.871,3.833c1.693,2.19,2.54,4.968,2.54,8.331
				c-0.051,3.938-1.603,6.975-4.655,9.113c-3.028,2.19-6.901,3.311-11.62,3.363c-6.409,0-12.174-2.421-17.296-7.262L195.389,701.055
				z"/>
			<path class="st0" d="M280.725,706.913c-1.716,2.021-3.734,3.665-6.057,4.935c-2.321,1.321-5.009,2.008-8.062,2.06
				c-4.634,0-8.701-1.627-12.202-4.883c-3.627-3.255-5.49-8.528-5.591-15.82c0.101-7.369,1.966-12.708,5.596-16.016
				c3.503-3.255,7.574-4.856,12.212-4.805c3.05,0.053,5.734,0.702,8.054,1.949c2.319,1.272,4.336,2.975,6.05,5.105l-5.827,5.339
				c-1.993-2.743-4.654-4.167-7.984-4.272c-6.71-0.104-10.116,4.129-10.217,12.699c0.101,8.518,3.506,12.713,10.216,12.582
				c3.33-0.052,5.991-1.463,7.983-4.233L280.725,706.913z"/>
			<path class="st0" d="M293.26,696.247c0,3.258,0.908,5.734,2.726,7.428c1.691,1.72,3.912,2.58,6.663,2.58
				c3.206,0,6.07-1.316,8.595-3.948l5.717,5.041c-4.01,4.425-8.726,6.611-14.146,6.56c-2.067,0-4.086-0.312-6.052-0.938
				c-0.984-0.338-1.941-0.794-2.874-1.367c-0.984-0.494-1.904-1.106-2.762-1.836c-1.664-1.51-3.014-3.619-4.047-6.328
				c-1.136-2.604-1.702-5.989-1.702-10.156c0-4.01,0.491-7.344,1.475-10c0.982-2.708,2.244-4.844,3.782-6.406
				c1.562-1.588,3.315-2.734,5.257-3.438c1.916-0.703,3.808-1.055,5.674-1.055c4.487,0.053,8.282,1.576,11.384,4.571
				c3.152,3.048,4.753,7.241,4.804,12.581v6.711H293.26z M309.869,689.536c-0.102-3.167-0.923-5.562-2.465-7.184
				c-1.518-1.544-3.464-2.316-5.84-2.316c-2.377,0-4.323,0.772-5.84,2.316c-1.492,1.622-2.313,4.017-2.465,7.184H309.869z"/>
			<path class="st0" d="M327.33,672.892h7.883v4.297h0.165c2.599-3.203,6.005-4.805,10.22-4.805c3.154,0.053,5.904,1.09,8.251,3.113
				l-5.757,7.045c-1.667-1.357-3.397-2.037-5.189-2.037c-2.021,0-3.75,0.679-5.189,2.034c-1.616,1.33-2.45,3.481-2.5,6.454v24.445
				h-7.883V672.892z"/>
			<path class="st0" d="M385.92,706.913c-1.715,2.021-3.734,3.665-6.057,4.935c-2.32,1.321-5.008,2.008-8.061,2.06
				c-4.635,0-8.701-1.627-12.202-4.883c-3.627-3.255-5.49-8.528-5.591-15.82c0.101-7.369,1.966-12.708,5.596-16.016
				c3.502-3.255,7.574-4.856,12.211-4.805c3.051,0.053,5.734,0.702,8.055,1.949c2.318,1.272,4.336,2.975,6.049,5.105l-5.826,5.339
				c-1.994-2.743-4.654-4.167-7.984-4.272c-6.711-0.104-10.117,4.129-10.217,12.699c0.1,8.518,3.506,12.713,10.217,12.582
				c3.328-0.052,5.99-1.463,7.982-4.233L385.92,706.913z"/>
			<path class="st0" d="M413.15,709.847h-0.151c-0.731,1.379-1.866,2.395-3.403,3.046c-1.514,0.676-3.605,1.015-6.277,1.015
				c-4.388-0.053-7.766-1.249-10.135-3.593c-2.497-2.292-3.744-5.221-3.744-8.788c0-3.411,1.084-6.236,3.252-8.476
				c2.168-2.291,5.345-3.462,9.529-3.515h10.93v-4.279c0.052-3.584-2.635-5.324-8.059-5.221c-1.968,0-3.519,0.21-4.653,0.628
				c-1.187,0.498-2.119,1.335-2.8,2.513l-6.205-4.889c2.999-4.04,7.422-6.008,13.27-5.904c4.938-0.052,8.883,0.912,11.832,2.891
				c2.948,2.031,4.447,5.521,4.498,10.469v27.695h-7.883V709.847z M413.15,696.247h-9.475c-4.601,0.104-6.875,1.733-6.822,4.887
				c0,1.381,0.594,2.554,1.781,3.518c1.137,1.069,3.02,1.604,5.646,1.604c3.31,0.053,5.646-0.352,7.012-1.212
				c1.237-0.86,1.857-2.814,1.857-5.863V696.247z"/>
			<path class="st0" d="M475.181,709.206c-2.597,3.03-5.986,4.598-10.17,4.701c-2.369-0.053-4.398-0.561-6.086-1.524
				c-1.765-0.938-3.239-2.189-4.424-3.753c-1.084-1.277-1.802-3.01-2.154-5.199c-0.429-2.085-0.643-5.525-0.643-10.32
				c0-4.874,0.214-8.34,0.643-10.399c0.353-2.085,1.07-3.766,2.154-5.043c2.218-3.394,5.721-5.155,10.51-5.284
				c2.017,0,3.881,0.428,5.595,1.282c1.589,0.907,3.113,2.073,4.575,3.497v-20.678h7.883v56.953h-7.883V709.206z M467.423,680.505
				c-1.868,0-3.293,0.327-4.277,0.979c-1.085,0.706-1.88,1.673-2.384,2.9c-0.48,1.229-0.795,2.562-0.946,3.999
				c-0.151,1.541-0.228,3.122-0.228,4.742c0,1.542,0.076,3.045,0.228,4.508c0.151,1.541,0.466,2.926,0.946,4.154
				c0.504,1.176,1.299,2.143,2.384,2.9c0.984,0.731,2.409,1.098,4.277,1.098c1.867,0,3.343-0.393,4.428-1.177
				c1.085-0.757,1.829-1.75,2.233-2.979c0.504-1.228,0.845-2.599,1.021-4.115c0.051-1.489,0.076-2.952,0.076-4.39
				c0-1.567-0.025-3.07-0.076-4.508c-0.177-1.437-0.518-2.77-1.021-3.997c-0.404-1.229-1.148-2.222-2.233-2.979
				S469.29,680.505,467.423,680.505z"/>
			<path class="st0" d="M499.158,696.247c0,3.258,0.908,5.734,2.727,7.428c1.69,1.72,3.911,2.58,6.663,2.58
				c3.205,0,6.069-1.316,8.594-3.948l5.717,5.041c-4.01,4.425-8.725,6.611-14.146,6.56c-2.067,0-4.085-0.312-6.052-0.938
				c-0.984-0.338-1.941-0.794-2.874-1.367c-0.984-0.494-1.904-1.106-2.762-1.836c-1.664-1.51-3.013-3.619-4.047-6.328
				c-1.136-2.604-1.702-5.989-1.702-10.156c0-4.01,0.491-7.344,1.475-10c0.983-2.708,2.244-4.844,3.782-6.406
				c1.563-1.588,3.315-2.734,5.258-3.438c1.915-0.703,3.807-1.055,5.673-1.055c4.488,0.053,8.282,1.576,11.385,4.571
				c3.151,3.048,4.752,7.241,4.803,12.581v6.711H499.158z M515.767,689.536c-0.102-3.167-0.923-5.562-2.465-7.184
				c-1.518-1.544-3.464-2.316-5.84-2.316c-2.377,0-4.323,0.772-5.84,2.316c-1.492,1.622-2.313,4.017-2.465,7.184H515.767z"/>
			<path class="st0" d="M552.877,660.548h7.883v12.344h5.752v6.246h-5.752v23.64c-0.053,2.059,0.882,3.062,2.801,3.009h2.951v7.652
				h-4.116c-2.771,0-5.037-0.885-6.799-2.654c-1.813-1.69-2.72-4.135-2.72-7.335v-24.312h-3.958v-6.246h3.958V660.548z"/>
			<path class="st0" d="M574.869,656.485h7.883v8.121h-7.883V656.485z M574.869,672.892h7.883v40.547h-7.883V672.892z"/>
			<path class="st0" d="M594.049,705.317h7.883v8.121h-7.883V705.317z"/>
		</g>
	</g>
</g>
</svg>